<?xml version="1.0" standalone="no"?><!DOCTYPE svg PUBLIC "-//W3C//DTD SVG 1.1//EN" "http://www.w3.org/Graphics/SVG/1.1/DTD/svg11.dtd"><svg t="1632491523846" class="icon" viewBox="0 0 1024 1024" version="1.1" xmlns="http://www.w3.org/2000/svg" p-id="1395" xmlns:xlink="http://www.w3.org/1999/xlink" width="200" height="200"><defs><style type="text/css"></style></defs><path d="M754.816 351.776a57.12 57.12 0 0 0-1.28-2.8c-4.552 10.688-16.592 19.16-29.536 18.968v92.944c0 108.08-87.92 196-196 196s-196-87.92-196-196V386.32c0.392-1.216 1.048-3.08 1.976-5.424-11.32 0.288-22.928-5.704-27.752-16.032-4.024 9.032-5.648 14.872-5.712 15.144a16.016 16.016 0 0 0-0.504 3.992v76.888c0 125.72 102.28 228 228 228s228-102.28 228-228V357.816a16.288 16.288 0 0 0-1.192-6.04z" fill="#1296db" p-id="1396"></path><path d="M420 459.736m-24 0a24 24 0 1 0 48 0 24 24 0 1 0-48 0Z" fill="#1296db" p-id="1397"></path><path d="M644 459.736m-24 0a24 24 0 1 0 48 0 24 24 0 1 0-48 0Z" fill="#1296db" p-id="1398"></path><path d="M468 539.736c0 33.144 26.864 64 60 64 33.144 0 60-30.856 60-64h-120zM203.992 931.744a24 24 0 0 1-22.416-32.552c69.352-182.032 271.04-175.6 272.952-175.496a24 24 0 0 1 22.952 25c-0.56 13.224-11.968 23.528-24.944 22.952-7.008-0.248-169.232-4.68-226.104 144.632a24.016 24.016 0 0 1-22.44 15.464zM860.008 931.744a24.016 24.016 0 0 1-22.44-15.464C780.4 766.208 617.176 771.448 615.536 771.584c-13.16 0.656-24.448-9.696-25.016-22.936a24 24 0 0 1 22.936-25.016c2-0.08 199.608-6.52 268.968 175.552a24.008 24.008 0 0 1-22.416 32.56zM745.6 411.736a15.36 15.36 0 0 1-1.056-0.032c-41.824-2.448-113.104-20.048-141.168-67.552-64.528 56.2-249.696 59.584-292.976 59.584-9.424 0-17.064-7.168-17.064-16v-144c0-8.832 7.64-16 17.064-16s17.064 7.168 17.064 16v127.848c115.024-2.072 264.056-24.6 264.056-71.848 0-8.832 7.64-16 17.064-16s17.064 7.168 17.064 16c0 54.56 69.104 72.368 102.872 77.808V227.744c0-8.832 7.64-16 17.064-16s17.064 7.168 17.064 16v168c0 4.416-1.952 8.632-5.384 11.656a17.6 17.6 0 0 1-11.664 4.336z" fill="#1296db" p-id="1399"></path><path d="M763.04 343.664a16 16 0 0 1-16-16c0-25.856-83.776-63.424-215.04-63.424s-215.04 37.56-215.04 63.424a16 16 0 0 1-32 0v-78.248c0-62.648 124.272-95.424 247.04-95.424 122.768 0 247.04 32.776 247.04 95.424v78.248a16 16 0 0 1-16 16zM532 232.24c84.76 0 170.232 15.624 215.04 45.912v-28.744c0-25.856-83.776-63.424-215.04-63.424s-215.04 37.56-215.04 63.424v28.744c44.808-30.288 130.28-45.912 215.04-45.912z" fill="#1296db" p-id="1400"></path><path d="M763.04 264.24a16 16 0 0 1-16-16c0-25.856-83.776-63.424-215.04-63.424s-215.04 37.56-215.04 63.424a16 16 0 0 1-32 0V147.16c0-62.648 124.272-95.424 247.04-95.424 122.768 0 247.04 32.776 247.04 95.424V248.24a16 16 0 0 1-16 16zM532 152.816c84.76 0 170.232 15.624 215.04 45.912v-51.568c0-25.856-83.776-63.424-215.04-63.424s-215.04 37.56-215.04 63.424v51.568c44.808-30.288 130.28-45.912 215.04-45.912zM580 787.736a23.976 23.976 0 0 1-24-24v-80c0-10.008 6.2-18.96 15.568-22.472l128-48a23.992 23.992 0 0 1 32.432 22.472v80c0 10.008-6.2 18.96-15.568 22.472l-128 48a23.864 23.864 0 0 1-8.432 1.528z m24-87.36v28.736l80-30v-28.736l-80 30zM484 787.736c-2.848 0-5.696-0.504-8.432-1.528l-128-48a23.984 23.984 0 0 1-15.568-22.472v-80a24 24 0 0 1 32.432-22.472l128 48a23.984 23.984 0 0 1 15.568 22.472v80a24 24 0 0 1-24 24z m-104-88.632l80 30v-28.736l-80-30v28.736z" fill="#1296db" p-id="1401"></path><path d="M540 696.896c-134.952 0-248-109.232-248-237.16v-112c-8.816-3.552-16-9.992-16-20.08V155.16c0-67.896 128.304-103.424 255.04-103.424 123.576 0 256.96 42.816 256.96 112v168a24 24 0 0 1-16 22.632v106.52c0 132.344-101.904 236.008-232 236.008z m-216-419.696l0.784 0.328a24 24 0 0 1 14.256 21.936v161.432c0 100.152 93.904 188 200.96 188 103.176 0 184-82.576 184-188V302.376a23.984 23.984 0 0 1 16-22.624V163.744c0-19-81.096-64-208.96-64-136.6 0-207.04 38.848-207.04 55.424V277.2zM400 939.736c-37.496 0-68-30.504-68-68s30.504-68 68-68c37.488 0 68 30.504 68 68s-30.512 68-68 68z m0-88c-11.032 0-20 8.968-20 20s8.968 20 20 20 20-8.968 20-20-8.968-20-20-20zM656 939.736c-37.496 0-68-30.504-68-68s30.504-68 68-68c37.488 0 68 30.504 68 68s-30.512 68-68 68z m0-88c-11.032 0-20 8.968-20 20s8.968 20 20 20 20-8.968 20-20-8.968-20-20-20z" fill="#1296db" p-id="1402"></path></svg>